<mxfile host="app.diagrams.net" modified="2024-03-25T08:53:25.893Z" agent="Mozilla/5.0 (Macintosh; Intel Mac OS X 10_15_7) AppleWebKit/537.36 (KHTML, like Gecko) Chrome/122.0.0.0 Safari/537.36 Edg/122.0.0.0" etag="5Wqq_GN9DdH43X6YDFBI" version="24.0.8" type="github">
  <diagram name="第 1 页" id="nQ7ygSFxKSvtULuJC0PI">
    <mxGraphModel dx="748" dy="479" grid="1" gridSize="10" guides="1" tooltips="1" connect="1" arrows="1" fold="1" page="1" pageScale="1" pageWidth="827" pageHeight="1169" math="0" shadow="0">
      <root>
        <mxCell id="0" />
        <mxCell id="1" parent="0" />
        <mxCell id="e91pbkMCY1nBFIZttT2K-29" value="&lt;p style=&quot;margin: 4px 0px 0px; text-align: center; line-height: 10%;&quot;&gt;&lt;b style=&quot;font-family: &amp;quot;Times New Roman&amp;quot;; font-size: 10px; text-wrap: nowrap;&quot;&gt;FrameStorageManager&lt;/b&gt;&lt;br&gt;&lt;/p&gt;&lt;hr size=&quot;1&quot; style=&quot;border-style:solid;&quot;&gt;&lt;p style=&quot;margin: 0px 0px 0px 4px; line-height: 80%;&quot;&gt;&lt;font style=&quot;font-size: 10px;&quot; face=&quot;Times New Roman&quot;&gt;-baseStorageHostList:&lt;br&gt;&lt;/font&gt;&lt;/p&gt;&lt;p style=&quot;margin: 0px 0px 0px 4px; line-height: 80%;&quot;&gt;&lt;font style=&quot;font-size: 10px;&quot; face=&quot;Times New Roman&quot;&gt;List&amp;lt;&lt;/font&gt;&lt;span style=&quot;background-color: initial; text-wrap: nowrap; font-family: &amp;quot;Times New Roman&amp;quot;; font-size: 10px; text-align: center;&quot;&gt;BaseStorageHost&lt;/span&gt;&lt;span style=&quot;font-size: 10px; font-family: &amp;quot;Times New Roman&amp;quot;; background-color: initial;&quot;&gt;&amp;gt;&lt;/span&gt;&lt;/p&gt;&lt;hr size=&quot;1&quot; style=&quot;border-style:solid;&quot;&gt;&lt;p style=&quot;margin: 0px 0px 0px 4px; line-height: 90%;&quot;&gt;&lt;font style=&quot;font-size: 10px;&quot; face=&quot;Times New Roman&quot;&gt;+FrameStorageManager()&lt;br&gt;+add&lt;/font&gt;&lt;span style=&quot;background-color: initial; text-wrap: nowrap; font-family: &amp;quot;Times New Roman&amp;quot;; font-size: 10px; text-align: center;&quot;&gt;BaseStorageHost()&lt;/span&gt;&lt;/p&gt;&lt;p style=&quot;margin: 0px 0px 0px 4px; line-height: 90%;&quot;&gt;&lt;span style=&quot;background-color: initial; text-wrap: nowrap; font-family: &amp;quot;Times New Roman&amp;quot;; font-size: 10px; text-align: center;&quot;&gt;+removeBase&lt;/span&gt;&lt;span style=&quot;font-family: &amp;quot;Times New Roman&amp;quot;; font-size: 10px; text-align: center; text-wrap: nowrap; background-color: initial;&quot;&gt;StorageHost()&lt;/span&gt;&lt;/p&gt;&lt;p style=&quot;margin:0px;margin-left:4px;&quot;&gt;&lt;span style=&quot;background-color: initial; text-wrap: nowrap; font-family: &amp;quot;Times New Roman&amp;quot;; font-size: 10px; text-align: center;&quot;&gt;&lt;br&gt;&lt;/span&gt;&lt;/p&gt;&lt;p style=&quot;margin:0px;margin-left:4px;&quot;&gt;&lt;font style=&quot;font-size: 10px;&quot; face=&quot;Times New Roman&quot;&gt;&lt;br&gt;&lt;/font&gt;&lt;/p&gt;" style="verticalAlign=top;align=left;overflow=fill;html=1;whiteSpace=wrap;strokeWidth=0.5;" parent="1" vertex="1">
          <mxGeometry x="500" y="364" width="120" height="98" as="geometry" />
        </mxCell>
        <mxCell id="e91pbkMCY1nBFIZttT2K-50" value="" style="group" parent="1" vertex="1" connectable="0">
          <mxGeometry x="635" y="345" width="130" height="142" as="geometry" />
        </mxCell>
        <mxCell id="e91pbkMCY1nBFIZttT2K-2" value="" style="swimlane;fontStyle=1;align=center;verticalAlign=top;childLayout=stackLayout;horizontal=1;startSize=10;horizontalStack=0;resizeParent=1;resizeParentMax=0;resizeLast=0;collapsible=1;marginBottom=0;whiteSpace=wrap;html=1;strokeWidth=0.5;" parent="e91pbkMCY1nBFIZttT2K-50" vertex="1">
          <mxGeometry y="12" width="130" height="130" as="geometry">
            <mxRectangle x="330" y="360" width="100" height="30" as="alternateBounds" />
          </mxGeometry>
        </mxCell>
        <mxCell id="e91pbkMCY1nBFIZttT2K-3" value="&lt;font face=&quot;Times New Roman&quot; style=&quot;font-size: 10px;&quot;&gt;-storageWeight: int&lt;/font&gt;&lt;div style=&quot;line-height: 80%;&quot;&gt;&lt;font style=&quot;font-size: 10px;&quot; face=&quot;Times New Roman&quot;&gt;-cpuCoreCount: int&lt;/font&gt;&lt;/div&gt;&lt;div style=&quot;line-height: 80%;&quot;&gt;&lt;font style=&quot;font-size: 10px;&quot; face=&quot;Times New Roman&quot;&gt;-memoryWeight: int&lt;/font&gt;&lt;/div&gt;&lt;div style=&quot;line-height: 80%;&quot;&gt;&lt;font style=&quot;font-size: 10px;&quot; face=&quot;Times New Roman&quot;&gt;&lt;br&gt;&lt;/font&gt;&lt;/div&gt;&lt;div style=&quot;line-height: 80%;&quot;&gt;&lt;font style=&quot;font-size: 10px;&quot; face=&quot;Times New Roman&quot;&gt;&lt;br&gt;&lt;/font&gt;&lt;/div&gt;&lt;div style=&quot;line-height: 80%;&quot;&gt;&lt;font style=&quot;font-size: 10px;&quot; face=&quot;Times New Roman&quot;&gt;&lt;br&gt;&lt;/font&gt;&lt;/div&gt;" style="text;strokeColor=none;fillColor=none;align=left;verticalAlign=top;spacingLeft=4;spacingRight=4;overflow=hidden;rotatable=0;points=[[0,0.5],[1,0.5]];portConstraint=eastwest;whiteSpace=wrap;html=1;strokeWidth=0.5;" parent="e91pbkMCY1nBFIZttT2K-2" vertex="1">
          <mxGeometry y="10" width="130" height="50" as="geometry" />
        </mxCell>
        <mxCell id="e91pbkMCY1nBFIZttT2K-4" value="" style="line;strokeWidth=0.5;fillColor=none;align=left;verticalAlign=middle;spacingTop=-1;spacingLeft=3;spacingRight=3;rotatable=0;labelPosition=right;points=[];portConstraint=eastwest;strokeColor=inherit;" parent="e91pbkMCY1nBFIZttT2K-2" vertex="1">
          <mxGeometry y="60" width="130" height="8" as="geometry" />
        </mxCell>
        <mxCell id="e91pbkMCY1nBFIZttT2K-5" value="&lt;font style=&quot;font-size: 10px;&quot; face=&quot;Times New Roman&quot;&gt;+BaseStorageManager()&lt;/font&gt;&lt;div style=&quot;line-height: 80%;&quot;&gt;&lt;font style=&quot;font-size: 10px;&quot; face=&quot;Times New Roman&quot;&gt;+set&lt;/font&gt;&lt;span style=&quot;font-family: &amp;quot;Times New Roman&amp;quot;; font-size: 10px; background-color: initial;&quot;&gt;storageWeight()&lt;/span&gt;&lt;/div&gt;&lt;div style=&quot;line-height: 80%;&quot;&gt;&lt;span style=&quot;font-family: &amp;quot;Times New Roman&amp;quot;; font-size: 10px; background-color: initial;&quot;&gt;+set&lt;/span&gt;&lt;span style=&quot;font-family: &amp;quot;Times New Roman&amp;quot;; font-size: 10px; background-color: initial;&quot;&gt;CoreCount()&lt;/span&gt;&lt;/div&gt;&lt;div style=&quot;line-height: 80%;&quot;&gt;&lt;span style=&quot;font-family: &amp;quot;Times New Roman&amp;quot;; font-size: 10px; background-color: initial;&quot;&gt;+&lt;/span&gt;&lt;span style=&quot;font-family: &amp;quot;Times New Roman&amp;quot;; font-size: 10px; background-color: initial;&quot;&gt;memoryWeight()&lt;/span&gt;&lt;/div&gt;" style="text;strokeColor=none;fillColor=none;align=left;verticalAlign=top;spacingLeft=4;spacingRight=4;overflow=hidden;rotatable=0;points=[[0,0.5],[1,0.5]];portConstraint=eastwest;whiteSpace=wrap;html=1;strokeWidth=0.5;" parent="e91pbkMCY1nBFIZttT2K-2" vertex="1">
          <mxGeometry y="68" width="130" height="62" as="geometry" />
        </mxCell>
        <mxCell id="e91pbkMCY1nBFIZttT2K-7" style="edgeStyle=orthogonalEdgeStyle;rounded=0;orthogonalLoop=1;jettySize=auto;html=1;exitX=1;exitY=0.5;exitDx=0;exitDy=0;" parent="e91pbkMCY1nBFIZttT2K-2" source="e91pbkMCY1nBFIZttT2K-3" target="e91pbkMCY1nBFIZttT2K-3" edge="1">
          <mxGeometry relative="1" as="geometry" />
        </mxCell>
        <mxCell id="e91pbkMCY1nBFIZttT2K-6" value="&lt;font face=&quot;Times New Roman&quot; style=&quot;font-size: 10px;&quot;&gt;&lt;b&gt;BaseStorageHost&lt;/b&gt;&lt;/font&gt;" style="text;html=1;align=center;verticalAlign=middle;resizable=0;points=[];autosize=1;strokeColor=none;fillColor=none;" parent="e91pbkMCY1nBFIZttT2K-50" vertex="1">
          <mxGeometry x="20" width="100" height="30" as="geometry" />
        </mxCell>
        <mxCell id="e91pbkMCY1nBFIZttT2K-51" value="&lt;p style=&quot;margin: 4px 0px 0px; text-align: center; line-height: 10%;&quot;&gt;&lt;b style=&quot;font-family: &amp;quot;Times New Roman&amp;quot;; font-size: 10px; text-wrap: nowrap;&quot;&gt;ClusterStorageManager&lt;/b&gt;&lt;br&gt;&lt;/p&gt;&lt;hr size=&quot;1&quot; style=&quot;border-style:solid;&quot;&gt;&lt;p style=&quot;margin: 0px 0px 0px 4px; line-height: 80%;&quot;&gt;&lt;font style=&quot;font-size: 10px;&quot; face=&quot;Times New Roman&quot;&gt;-FrameStorageHostList:&lt;br&gt;&lt;/font&gt;&lt;/p&gt;&lt;p style=&quot;margin: 0px 0px 0px 4px; line-height: 80%;&quot;&gt;&lt;font style=&quot;font-size: 10px;&quot; face=&quot;Times New Roman&quot;&gt;List&amp;lt;&lt;/font&gt;&lt;span style=&quot;font-family: &amp;quot;Times New Roman&amp;quot;; font-size: 10px;&quot;&gt;Frame&lt;/span&gt;&lt;span style=&quot;background-color: initial; text-wrap: nowrap; font-family: &amp;quot;Times New Roman&amp;quot;; font-size: 10px; text-align: center;&quot;&gt;StorageHost&lt;/span&gt;&lt;span style=&quot;font-size: 10px; font-family: &amp;quot;Times New Roman&amp;quot;; background-color: initial;&quot;&gt;&amp;gt;&lt;/span&gt;&lt;/p&gt;&lt;hr size=&quot;1&quot; style=&quot;border-style:solid;&quot;&gt;&lt;p style=&quot;margin: 0px 0px 0px 4px; line-height: 90%;&quot;&gt;&lt;font style=&quot;font-size: 10px;&quot; face=&quot;Times New Roman&quot;&gt;+&lt;/font&gt;&lt;b style=&quot;text-align: center; text-wrap: nowrap; font-family: &amp;quot;Times New Roman&amp;quot;; font-size: 10px;&quot;&gt;&amp;nbsp;&lt;/b&gt;&lt;span style=&quot;text-align: center; text-wrap: nowrap; font-family: &amp;quot;Times New Roman&amp;quot;; font-size: 10px;&quot;&gt;ClusterStorageManager&lt;/span&gt;&lt;font style=&quot;font-size: 10px;&quot; face=&quot;Times New Roman&quot;&gt;()&lt;br&gt;+addFrame&lt;/font&gt;&lt;span style=&quot;background-color: initial; text-wrap: nowrap; font-family: &amp;quot;Times New Roman&amp;quot;; font-size: 10px; text-align: center;&quot;&gt;StorageHost()&lt;/span&gt;&lt;/p&gt;&lt;p style=&quot;margin: 0px 0px 0px 4px; line-height: 90%;&quot;&gt;&lt;span style=&quot;background-color: initial; text-wrap: nowrap; font-family: &amp;quot;Times New Roman&amp;quot;; font-size: 10px; text-align: center;&quot;&gt;+remove&lt;/span&gt;&lt;span style=&quot;font-family: &amp;quot;Times New Roman&amp;quot;; font-size: 10px; background-color: initial;&quot;&gt;FrameStorageManager&lt;/span&gt;&lt;span style=&quot;background-color: initial; font-family: &amp;quot;Times New Roman&amp;quot;; font-size: 10px; text-align: center; text-wrap: nowrap;&quot;&gt;()&lt;/span&gt;&lt;/p&gt;&lt;p style=&quot;margin:0px;margin-left:4px;&quot;&gt;&lt;span style=&quot;background-color: initial; text-wrap: nowrap; font-family: &amp;quot;Times New Roman&amp;quot;; font-size: 10px; text-align: center;&quot;&gt;&lt;br&gt;&lt;/span&gt;&lt;/p&gt;&lt;p style=&quot;margin:0px;margin-left:4px;&quot;&gt;&lt;font style=&quot;font-size: 10px;&quot; face=&quot;Times New Roman&quot;&gt;&lt;br&gt;&lt;/font&gt;&lt;/p&gt;" style="verticalAlign=top;align=left;overflow=fill;html=1;whiteSpace=wrap;strokeWidth=0.5;" parent="1" vertex="1">
          <mxGeometry x="340" y="365" width="140" height="98" as="geometry" />
        </mxCell>
        <mxCell id="e91pbkMCY1nBFIZttT2K-52" value="&lt;p style=&quot;margin: 4px 0px 0px; text-align: center; line-height: 10%;&quot;&gt;&lt;b style=&quot;font-family: &amp;quot;Times New Roman&amp;quot;; font-size: 10px; text-wrap: nowrap;&quot;&gt;DataCenterManager&lt;/b&gt;&lt;br&gt;&lt;/p&gt;&lt;hr size=&quot;1&quot; style=&quot;border-style:solid;&quot;&gt;&lt;p style=&quot;margin: 0px 0px 0px 4px; line-height: 80%;&quot;&gt;&lt;font style=&quot;font-size: 10px;&quot; face=&quot;Times New Roman&quot;&gt;-c&lt;/font&gt;&lt;span style=&quot;text-align: center; text-wrap: nowrap; font-family: &amp;quot;Times New Roman&amp;quot;; font-size: 10px;&quot;&gt;lusterStorageManagerList&lt;/span&gt;&lt;font style=&quot;font-size: 10px;&quot; face=&quot;Times New Roman&quot;&gt;:&lt;br&gt;&lt;/font&gt;&lt;/p&gt;&lt;p style=&quot;margin: 0px 0px 0px 4px; line-height: 80%;&quot;&gt;&lt;font style=&quot;font-size: 10px;&quot; face=&quot;Times New Roman&quot;&gt;List&amp;lt;&lt;/font&gt;&lt;span style=&quot;font-family: &amp;quot;Times New Roman&amp;quot;; font-size: 10px; text-align: center; text-wrap: nowrap;&quot;&gt;ClusterStorageManager&lt;/span&gt;&lt;span style=&quot;font-size: 10px; font-family: &amp;quot;Times New Roman&amp;quot;; background-color: initial;&quot;&gt;&amp;gt;&lt;/span&gt;&lt;/p&gt;&lt;hr size=&quot;1&quot; style=&quot;border-style:solid;&quot;&gt;&lt;p style=&quot;margin: 0px 0px 0px 4px; line-height: 90%;&quot;&gt;&lt;font style=&quot;font-size: 10px;&quot; face=&quot;Times New Roman&quot;&gt;+&lt;/font&gt;&lt;b style=&quot;text-align: center; text-wrap: nowrap; font-family: &amp;quot;Times New Roman&amp;quot;; font-size: 10px;&quot;&gt;&amp;nbsp;&lt;/b&gt;&lt;span style=&quot;text-align: center; text-wrap: nowrap; font-family: &amp;quot;Times New Roman&amp;quot;; font-size: 10px;&quot;&gt;DataCenterManager&lt;/span&gt;&lt;font style=&quot;font-size: 10px;&quot; face=&quot;Times New Roman&quot;&gt;()&lt;br&gt;+add&lt;/font&gt;&lt;span style=&quot;font-family: &amp;quot;Times New Roman&amp;quot;; font-size: 10px; text-align: center; text-wrap: nowrap;&quot;&gt;ClusterStorageManager&lt;/span&gt;&lt;span style=&quot;background-color: initial; text-wrap: nowrap; font-family: &amp;quot;Times New Roman&amp;quot;; font-size: 10px; text-align: center;&quot;&gt;()&lt;/span&gt;&lt;/p&gt;&lt;p style=&quot;margin: 0px 0px 0px 4px; line-height: 90%;&quot;&gt;&lt;span style=&quot;background-color: initial; text-wrap: nowrap; font-family: &amp;quot;Times New Roman&amp;quot;; font-size: 10px; text-align: center;&quot;&gt;+remove&lt;/span&gt;&lt;span style=&quot;font-family: &amp;quot;Times New Roman&amp;quot;; font-size: 10px; text-align: center; text-wrap: nowrap; background-color: initial;&quot;&gt;ClusterStorageManager&lt;/span&gt;&lt;span style=&quot;background-color: initial; font-family: &amp;quot;Times New Roman&amp;quot;; font-size: 10px; text-align: center; text-wrap: nowrap;&quot;&gt;()&lt;/span&gt;&lt;/p&gt;&lt;p style=&quot;margin:0px;margin-left:4px;&quot;&gt;&lt;span style=&quot;background-color: initial; text-wrap: nowrap; font-family: &amp;quot;Times New Roman&amp;quot;; font-size: 10px; text-align: center;&quot;&gt;&lt;br&gt;&lt;/span&gt;&lt;/p&gt;&lt;p style=&quot;margin:0px;margin-left:4px;&quot;&gt;&lt;font style=&quot;font-size: 10px;&quot; face=&quot;Times New Roman&quot;&gt;&lt;br&gt;&lt;/font&gt;&lt;/p&gt;" style="verticalAlign=top;align=left;overflow=fill;html=1;whiteSpace=wrap;strokeWidth=0.5;" parent="1" vertex="1">
          <mxGeometry x="335" y="493" width="150" height="98" as="geometry" />
        </mxCell>
        <mxCell id="bXxIx29E_SM2ivV317YK-1" value="&lt;p style=&quot;margin: 4px 0px 0px; text-align: center; line-height: 10%;&quot;&gt;&lt;b style=&quot;font-family: &amp;quot;Times New Roman&amp;quot;; font-size: 10px; text-wrap: nowrap;&quot;&gt;DataStatusMonitor&lt;/b&gt;&lt;br&gt;&lt;/p&gt;&lt;hr size=&quot;1&quot; style=&quot;border-style:solid;&quot;&gt;&lt;p style=&quot;margin: 0px 0px 0px 4px; line-height: 80%;&quot;&gt;&lt;font style=&quot;font-size: 10px;&quot; face=&quot;Times New Roman&quot;&gt;-dataAccessMap:&lt;/font&gt;&lt;font style=&quot;background-color: initial; font-size: 10px;&quot; face=&quot;Times New Roman&quot;&gt;Map&amp;lt;&lt;/font&gt;&lt;span style=&quot;background-color: initial; text-wrap: nowrap; font-family: &amp;quot;Times New Roman&amp;quot;; font-size: 10px; text-align: center;&quot;&gt;File,Integer&lt;/span&gt;&lt;span style=&quot;background-color: initial; font-size: 10px; font-family: &amp;quot;Times New Roman&amp;quot;;&quot;&gt;&amp;gt;&lt;/span&gt;&lt;/p&gt;&lt;p style=&quot;margin: 0px 0px 0px 4px; line-height: 80%;&quot;&gt;&lt;span style=&quot;background-color: initial; font-size: 10px; font-family: &amp;quot;Times New Roman&amp;quot;;&quot;&gt;-dataAccessTime:Map&amp;lt;File,Date[]&amp;gt;&lt;/span&gt;&lt;/p&gt;&lt;p style=&quot;margin: 0px 0px 0px 4px; line-height: 80%;&quot;&gt;&lt;span style=&quot;background-color: initial; font-size: 10px; font-family: &amp;quot;Times New Roman&amp;quot;;&quot;&gt;-dataTemperateMap&amp;lt;File,Double&amp;gt;&lt;/span&gt;&lt;/p&gt;&lt;hr size=&quot;1&quot; style=&quot;border-style:solid;&quot;&gt;&lt;p style=&quot;margin: 0px 0px 0px 4px; line-height: 90%;&quot;&gt;&lt;font style=&quot;font-size: 10px;&quot; face=&quot;Times New Roman&quot;&gt;+&lt;/font&gt;&lt;span style=&quot;text-align: center; text-wrap: nowrap; font-family: &amp;quot;Times New Roman&amp;quot;; font-size: 10px;&quot;&gt;DataStatusMonitor&lt;/span&gt;&lt;font style=&quot;font-size: 10px;&quot; face=&quot;Times New Roman&quot;&gt;()&lt;/font&gt;&lt;/p&gt;&lt;p style=&quot;margin: 0px 0px 0px 4px; line-height: 90%;&quot;&gt;&lt;font style=&quot;font-size: 10px;&quot; face=&quot;Times New Roman&quot;&gt;+addDataAccessTime()&lt;/font&gt;&lt;/p&gt;&lt;p style=&quot;margin: 0px 0px 0px 4px; line-height: 90%;&quot;&gt;&lt;font style=&quot;font-size: 10px;&quot; face=&quot;Times New Roman&quot;&gt;+getRecentAccessTimeByFile()&lt;/font&gt;&lt;/p&gt;&lt;p style=&quot;margin: 0px 0px 0px 4px; line-height: 90%;&quot;&gt;&lt;font style=&quot;font-size: 10px;&quot; face=&quot;Times New Roman&quot;&gt;+updateD&lt;/font&gt;&lt;span style=&quot;font-family: &amp;quot;Times New Roman&amp;quot;; font-size: 10px;&quot;&gt;ataAccess()&lt;/span&gt;&lt;/p&gt;&lt;p style=&quot;margin: 0px 0px 0px 4px; line-height: 90%;&quot;&gt;&lt;font style=&quot;font-size: 10px;&quot; face=&quot;Times New Roman&quot;&gt;+updateData&lt;/font&gt;&lt;span style=&quot;font-family: &amp;quot;Times New Roman&amp;quot;; font-size: 10px;&quot;&gt;Temperate()&lt;/span&gt;&lt;font style=&quot;font-size: 10px;&quot; face=&quot;Times New Roman&quot;&gt;&lt;br&gt;&lt;br&gt;&lt;/font&gt;&lt;/p&gt;&lt;p style=&quot;margin:0px;margin-left:4px;&quot;&gt;&lt;span style=&quot;background-color: initial; text-wrap: nowrap; font-family: &amp;quot;Times New Roman&amp;quot;; font-size: 10px; text-align: center;&quot;&gt;&lt;br&gt;&lt;/span&gt;&lt;/p&gt;&lt;p style=&quot;margin:0px;margin-left:4px;&quot;&gt;&lt;font style=&quot;font-size: 10px;&quot; face=&quot;Times New Roman&quot;&gt;&lt;br&gt;&lt;/font&gt;&lt;/p&gt;" style="verticalAlign=top;align=left;overflow=fill;html=1;whiteSpace=wrap;strokeWidth=0.5;" parent="1" vertex="1">
          <mxGeometry x="510" y="491" width="160" height="129" as="geometry" />
        </mxCell>
        <mxCell id="bXxIx29E_SM2ivV317YK-3" value="" style="html=1;verticalAlign=bottom;endArrow=open;dashed=1;endSize=8;curved=0;rounded=0;exitX=1;exitY=0.5;exitDx=0;exitDy=0;entryX=0.012;entryY=0.961;entryDx=0;entryDy=0;entryPerimeter=0;" parent="1" target="e91pbkMCY1nBFIZttT2K-3" edge="1">
          <mxGeometry relative="1" as="geometry">
            <mxPoint x="620.0000000000002" y="415.0000000000001" as="sourcePoint" />
            <mxPoint x="610" y="564" as="targetPoint" />
          </mxGeometry>
        </mxCell>
        <mxCell id="bXxIx29E_SM2ivV317YK-4" value="" style="html=1;verticalAlign=bottom;endArrow=open;dashed=1;endSize=8;curved=0;rounded=0;exitX=1;exitY=0.5;exitDx=0;exitDy=0;" parent="1" source="e91pbkMCY1nBFIZttT2K-51" target="e91pbkMCY1nBFIZttT2K-29" edge="1">
          <mxGeometry relative="1" as="geometry">
            <mxPoint x="530" y="670" as="sourcePoint" />
            <mxPoint x="450" y="670" as="targetPoint" />
          </mxGeometry>
        </mxCell>
        <mxCell id="bXxIx29E_SM2ivV317YK-5" value="" style="html=1;verticalAlign=bottom;endArrow=open;dashed=1;endSize=8;curved=0;rounded=0;exitX=0.5;exitY=0;exitDx=0;exitDy=0;entryX=0.5;entryY=1;entryDx=0;entryDy=0;" parent="1" source="e91pbkMCY1nBFIZttT2K-52" target="e91pbkMCY1nBFIZttT2K-51" edge="1">
          <mxGeometry relative="1" as="geometry">
            <mxPoint x="390" y="670" as="sourcePoint" />
            <mxPoint x="310" y="670" as="targetPoint" />
          </mxGeometry>
        </mxCell>
        <mxCell id="bXxIx29E_SM2ivV317YK-6" value="" style="html=1;verticalAlign=bottom;endArrow=open;dashed=1;endSize=8;curved=0;rounded=0;exitX=1.005;exitY=0.116;exitDx=0;exitDy=0;entryX=0.497;entryY=1.019;entryDx=0;entryDy=0;entryPerimeter=0;exitPerimeter=0;" parent="1" source="bXxIx29E_SM2ivV317YK-1" target="e91pbkMCY1nBFIZttT2K-5" edge="1">
          <mxGeometry relative="1" as="geometry">
            <mxPoint x="670" y="670" as="sourcePoint" />
            <mxPoint x="740" y="540" as="targetPoint" />
            <Array as="points">
              <mxPoint x="700" y="503" />
            </Array>
          </mxGeometry>
        </mxCell>
        <mxCell id="OFOLjx-DsKGNyAotZAlP-1" value="&lt;p style=&quot;margin: 4px 0px 0px; text-align: center; line-height: 10%;&quot;&gt;&lt;b style=&quot;font-family: &amp;quot;Times New Roman&amp;quot;; font-size: 10px; text-wrap: nowrap;&quot;&gt;ProportionalController&lt;/b&gt;&lt;br&gt;&lt;/p&gt;&lt;hr size=&quot;1&quot; style=&quot;border-style:solid;&quot;&gt;&lt;p style=&quot;margin: 0px 0px 0px 4px; line-height: 80%;&quot;&gt;&lt;font style=&quot;font-size: 10px;&quot; face=&quot;Times New Roman&quot;&gt;-HotDataProportion: int&lt;/font&gt;&lt;span style=&quot;text-align: center; text-wrap: nowrap; font-family: &amp;quot;Times New Roman&amp;quot;; font-size: 10px;&quot;&gt;&lt;br&gt;&lt;/span&gt;&lt;/p&gt;&lt;p style=&quot;margin: 0px 0px 0px 4px; line-height: 80%;&quot;&gt;&lt;font style=&quot;font-size: 10px;&quot; face=&quot;Times New Roman&quot;&gt;-ColdDataProportion: int&lt;/font&gt;&lt;/p&gt;&lt;hr size=&quot;1&quot; style=&quot;border-style:solid;&quot;&gt;&lt;p style=&quot;margin: 0px 0px 0px 4px; line-height: 90%;&quot;&gt;&lt;font style=&quot;font-size: 10px;&quot; face=&quot;Times New Roman&quot;&gt;+&lt;/font&gt;&lt;b style=&quot;text-align: center; text-wrap: nowrap; font-family: &amp;quot;Times New Roman&amp;quot;; font-size: 10px;&quot;&gt;&amp;nbsp;&lt;/b&gt;&lt;span style=&quot;text-align: center; text-wrap: nowrap; font-family: &amp;quot;Times New Roman&amp;quot;; font-size: 10px;&quot;&gt;ProportionalController&lt;/span&gt;&lt;font style=&quot;font-size: 10px;&quot; face=&quot;Times New Roman&quot;&gt;()&lt;/font&gt;&lt;/p&gt;&lt;p style=&quot;margin: 0px 0px 0px 4px; line-height: 90%;&quot;&gt;&lt;font style=&quot;font-size: 10px;&quot; face=&quot;Times New Roman&quot;&gt;+runDTI()&lt;/font&gt;&lt;/p&gt;&lt;p style=&quot;margin: 0px 0px 0px 4px; line-height: 90%;&quot;&gt;&lt;font style=&quot;font-size: 10px;&quot; face=&quot;Times New Roman&quot;&gt;+runDAA()&lt;br&gt;+adjust&lt;/font&gt;&lt;span style=&quot;font-family: &amp;quot;Times New Roman&amp;quot;; font-size: 10px; background-color: initial;&quot;&gt;HotDataProportion&lt;/span&gt;&lt;span style=&quot;background-color: initial; font-family: &amp;quot;Times New Roman&amp;quot;; font-size: 10px; text-align: center; text-wrap: nowrap;&quot;&gt;()&lt;/span&gt;&lt;/p&gt;&lt;p style=&quot;margin: 0px 0px 0px 4px; line-height: 90%;&quot;&gt;&lt;span style=&quot;background-color: initial; text-wrap: nowrap; font-family: &amp;quot;Times New Roman&amp;quot;; font-size: 10px; text-align: center;&quot;&gt;+&lt;/span&gt;&lt;font style=&quot;background-color: initial; font-size: 10px;&quot; face=&quot;Times New Roman&quot;&gt;&amp;nbsp;adjustCold&lt;/font&gt;&lt;span style=&quot;background-color: initial; font-family: &amp;quot;Times New Roman&amp;quot;; font-size: 10px;&quot;&gt;DataProportion&lt;/span&gt;&lt;span style=&quot;background-color: initial; font-family: &amp;quot;Times New Roman&amp;quot;; font-size: 10px; text-align: center; text-wrap: nowrap;&quot;&gt;()&lt;/span&gt;&lt;/p&gt;&lt;p style=&quot;margin:0px;margin-left:4px;&quot;&gt;&lt;span style=&quot;background-color: initial; text-wrap: nowrap; font-family: &amp;quot;Times New Roman&amp;quot;; font-size: 10px; text-align: center;&quot;&gt;&lt;br&gt;&lt;/span&gt;&lt;/p&gt;&lt;p style=&quot;margin:0px;margin-left:4px;&quot;&gt;&lt;font style=&quot;font-size: 10px;&quot; face=&quot;Times New Roman&quot;&gt;&lt;br&gt;&lt;/font&gt;&lt;/p&gt;" style="verticalAlign=top;align=left;overflow=fill;html=1;whiteSpace=wrap;strokeWidth=0.5;" vertex="1" parent="1">
          <mxGeometry x="510" y="910" width="170" height="140" as="geometry" />
        </mxCell>
        <mxCell id="OFOLjx-DsKGNyAotZAlP-2" value="&lt;p style=&quot;margin: 4px 0px 0px; text-align: center; line-height: 10%;&quot;&gt;&lt;b style=&quot;font-family: &amp;quot;Times New Roman&amp;quot;; font-size: 10px; text-wrap: nowrap;&quot;&gt;PolicyController&lt;/b&gt;&lt;br&gt;&lt;/p&gt;&lt;hr size=&quot;1&quot; style=&quot;border-style:solid;&quot;&gt;&lt;p style=&quot;margin: 0px 0px 0px 4px; line-height: 80%;&quot;&gt;&lt;font style=&quot;font-size: 10px;&quot; face=&quot;Times New Roman&quot;&gt;-&lt;/font&gt;&lt;span style=&quot;text-align: center; text-wrap: nowrap; font-family: &amp;quot;Times New Roman&amp;quot;; font-size: 10px;&quot;&gt;dataStorageStrategy:&lt;br&gt;Map&amp;lt;File,Integer&amp;gt;&lt;/span&gt;&lt;/p&gt;&lt;hr size=&quot;1&quot; style=&quot;border-style:solid;&quot;&gt;&lt;p style=&quot;margin: 0px 0px 0px 4px; line-height: 90%;&quot;&gt;&lt;font style=&quot;font-size: 10px;&quot; face=&quot;Times New Roman&quot;&gt;+&lt;/font&gt;&lt;b style=&quot;text-align: center; text-wrap: nowrap; font-family: &amp;quot;Times New Roman&amp;quot;; font-size: 10px;&quot;&gt;&amp;nbsp;&lt;/b&gt;&lt;span style=&quot;text-align: center; text-wrap: nowrap; font-family: &amp;quot;Times New Roman&amp;quot;; font-size: 10px;&quot;&gt;PolicyController&lt;/span&gt;&lt;font style=&quot;font-size: 10px;&quot; face=&quot;Times New Roman&quot;&gt;()&lt;br&gt;&lt;/font&gt;&lt;/p&gt;&lt;p style=&quot;margin:0px;margin-left:4px;&quot;&gt;&lt;span style=&quot;background-color: initial; text-wrap: nowrap; font-family: &amp;quot;Times New Roman&amp;quot;; font-size: 10px; text-align: center;&quot;&gt;+addData&lt;/span&gt;&lt;span style=&quot;font-family: &amp;quot;Times New Roman&amp;quot;; font-size: 10px; text-align: center; text-wrap: nowrap; background-color: initial;&quot;&gt;StorageStrategy():&lt;br&gt;+updateDataStorageStrategy():Boolean&lt;/span&gt;&lt;/p&gt;" style="verticalAlign=top;align=left;overflow=fill;html=1;whiteSpace=wrap;strokeWidth=0.5;" vertex="1" parent="1">
          <mxGeometry x="510" y="770" width="170" height="110" as="geometry" />
        </mxCell>
        <mxCell id="OFOLjx-DsKGNyAotZAlP-3" value="&lt;span style=&quot;font-family: &amp;quot;Times New Roman&amp;quot;; font-size: 10px; text-align: left;&quot;&gt;dataAccessTime控制数据访问时间，计算数据访问频率&lt;/span&gt;" style="text;html=1;align=center;verticalAlign=middle;whiteSpace=wrap;rounded=0;" vertex="1" parent="1">
          <mxGeometry x="500" y="650" width="80" height="50" as="geometry" />
        </mxCell>
        <mxCell id="OFOLjx-DsKGNyAotZAlP-4" value="&lt;p style=&quot;margin: 4px 0px 0px; text-align: center; line-height: 10%;&quot;&gt;&lt;b style=&quot;font-family: &amp;quot;Times New Roman&amp;quot;; font-size: 10px; text-wrap: nowrap;&quot;&gt;BaseController&lt;/b&gt;&lt;br&gt;&lt;/p&gt;&lt;hr size=&quot;1&quot; style=&quot;border-style:solid;&quot;&gt;&lt;p style=&quot;margin: 0px 0px 0px 4px; line-height: 9.6px;&quot;&gt;&lt;font style=&quot;font-size: 10px;&quot; face=&quot;Times New Roman&quot;&gt;-&lt;/font&gt;&lt;span style=&quot;text-align: center; text-wrap: nowrap; font-family: &amp;quot;Times New Roman&amp;quot;; font-size: 10px;&quot;&gt;dataSize: Long&lt;/span&gt;&lt;/p&gt;&lt;p style=&quot;margin: 0px 0px 0px 4px; line-height: 9.6px;&quot;&gt;&lt;span style=&quot;text-align: center; text-wrap: nowrap; font-family: &amp;quot;Times New Roman&amp;quot;; font-size: 10px;&quot;&gt;-tHeat: int&lt;/span&gt;&lt;/p&gt;&lt;p style=&quot;margin: 0px 0px 0px 4px; line-height: 9.6px;&quot;&gt;&lt;span style=&quot;text-align: center; text-wrap: nowrap; font-family: &amp;quot;Times New Roman&amp;quot;; font-size: 10px;&quot;&gt;-flag: int&lt;/span&gt;&lt;/p&gt;&lt;p style=&quot;margin: 0px 0px 0px 4px; line-height: 9.6px;&quot;&gt;&lt;span style=&quot;text-align: center; text-wrap: nowrap; font-family: &amp;quot;Times New Roman&amp;quot;; font-size: 10px;&quot;&gt;-storageEfficiency:double&lt;/span&gt;&lt;/p&gt;&lt;p style=&quot;margin: 0px 0px 0px 4px; line-height: 9.6px;&quot;&gt;&lt;span style=&quot;text-align: center; text-wrap: nowrap; font-family: &amp;quot;Times New Roman&amp;quot;; font-size: 10px;&quot;&gt;-storageUtilization:double&lt;/span&gt;&lt;/p&gt;&lt;p style=&quot;margin: 0px 0px 0px 4px; line-height: 9.6px;&quot;&gt;&lt;span style=&quot;text-align: center; text-wrap: nowrap; font-family: &amp;quot;Times New Roman&amp;quot;; font-size: 10px;&quot;&gt;-accessDelay: double&lt;/span&gt;&lt;/p&gt;&lt;p style=&quot;margin: 0px 0px 0px 4px; line-height: 9.6px;&quot;&gt;&lt;span style=&quot;text-align: center; text-wrap: nowrap; font-family: &amp;quot;Times New Roman&amp;quot;; font-size: 10px;&quot;&gt;-controlRatio: double&lt;/span&gt;&lt;/p&gt;&lt;hr size=&quot;1&quot; style=&quot;border-style:solid;&quot;&gt;&lt;p style=&quot;margin: 0px 0px 0px 4px; line-height: 90%;&quot;&gt;&lt;span style=&quot;font-family: &amp;quot;Times New Roman&amp;quot;; font-size: 10px; text-align: center; text-wrap: nowrap;&quot;&gt;+BaseController()&lt;/span&gt;&lt;/p&gt;&lt;p style=&quot;margin: 0px 0px 0px 4px; line-height: 90%;&quot;&gt;&lt;span style=&quot;background-color: initial; text-wrap: nowrap; font-family: &amp;quot;Times New Roman&amp;quot;; font-size: 10px; text-align: center;&quot;&gt;+getDataStatus()&lt;/span&gt;&lt;/p&gt;&lt;p style=&quot;margin: 0px 0px 0px 4px; line-height: 90%;&quot;&gt;&lt;span style=&quot;background-color: initial; text-wrap: nowrap; font-family: &amp;quot;Times New Roman&amp;quot;; font-size: 10px; text-align: center;&quot;&gt;+getDataPosition(File):&lt;br&gt;&lt;/span&gt;&lt;span style=&quot;font-family: &amp;quot;Times New Roman&amp;quot;; font-size: 10px; text-align: center; text-wrap: nowrap;&quot;&gt;BaseStorageHost&lt;/span&gt;&lt;span style=&quot;background-color: initial; text-wrap: nowrap; font-family: &amp;quot;Times New Roman&amp;quot;; font-size: 10px; text-align: center;&quot;&gt;&lt;br&gt;&lt;/span&gt;&lt;/p&gt;&lt;p style=&quot;margin: 0px 0px 0px 4px; line-height: 90%;&quot;&gt;&lt;span style=&quot;background-color: initial; text-wrap: nowrap; font-family: &amp;quot;Times New Roman&amp;quot;; font-size: 10px; text-align: center;&quot;&gt;+updataDataStatusTable()&lt;/span&gt;&lt;/p&gt;&lt;p style=&quot;margin: 0px 0px 0px 4px; line-height: 90%;&quot;&gt;&lt;span style=&quot;background-color: initial; text-wrap: nowrap; font-family: &amp;quot;Times New Roman&amp;quot;; font-size: 10px; text-align: center;&quot;&gt;+calculateDataAccessDelay()&lt;/span&gt;&lt;/p&gt;&lt;p style=&quot;margin: 0px 0px 0px 4px; line-height: 90%;&quot;&gt;&lt;span style=&quot;background-color: initial; text-wrap: nowrap; font-family: &amp;quot;Times New Roman&amp;quot;; font-size: 10px; text-align: center;&quot;&gt;&lt;br&gt;&lt;/span&gt;&lt;/p&gt;&lt;p style=&quot;margin:0px;margin-left:4px;&quot;&gt;&lt;span style=&quot;background-color: initial; text-wrap: nowrap; font-family: &amp;quot;Times New Roman&amp;quot;; font-size: 10px; text-align: center;&quot;&gt;&lt;br&gt;&lt;/span&gt;&lt;/p&gt;&lt;p style=&quot;margin:0px;margin-left:4px;&quot;&gt;&lt;font style=&quot;font-size: 10px;&quot; face=&quot;Times New Roman&quot;&gt;&lt;br&gt;&lt;/font&gt;&lt;/p&gt;" style="verticalAlign=top;align=left;overflow=fill;html=1;whiteSpace=wrap;strokeWidth=0.5;" vertex="1" parent="1">
          <mxGeometry x="320" y="800" width="150" height="180" as="geometry" />
        </mxCell>
        <mxCell id="OFOLjx-DsKGNyAotZAlP-8" value="" style="html=1;verticalAlign=bottom;endArrow=open;dashed=1;endSize=8;curved=0;rounded=0;exitX=1;exitY=0.5;exitDx=0;exitDy=0;entryX=0;entryY=0.5;entryDx=0;entryDy=0;" edge="1" parent="1" source="OFOLjx-DsKGNyAotZAlP-4" target="OFOLjx-DsKGNyAotZAlP-2">
          <mxGeometry relative="1" as="geometry">
            <mxPoint x="380" y="740" as="sourcePoint" />
            <mxPoint x="300" y="740" as="targetPoint" />
            <Array as="points">
              <mxPoint x="490" y="890" />
              <mxPoint x="490" y="825" />
            </Array>
          </mxGeometry>
        </mxCell>
        <mxCell id="OFOLjx-DsKGNyAotZAlP-9" value="" style="html=1;verticalAlign=bottom;endArrow=open;dashed=1;endSize=8;curved=0;rounded=0;entryX=0;entryY=0.5;entryDx=0;entryDy=0;" edge="1" parent="1" target="OFOLjx-DsKGNyAotZAlP-1">
          <mxGeometry relative="1" as="geometry">
            <mxPoint x="490" y="890" as="sourcePoint" />
            <mxPoint x="380" y="1050" as="targetPoint" />
            <Array as="points">
              <mxPoint x="490" y="980" />
            </Array>
          </mxGeometry>
        </mxCell>
      </root>
    </mxGraphModel>
  </diagram>
</mxfile>
